<?xml version="1.0" encoding="utf-8"?>
<!-- Generator: Adobe Illustrator 24.3.0, SVG Export Plug-In . SVG Version: 6.00 Build 0)  -->
<svg version="1.1" id="Layer_1" xmlns="http://www.w3.org/2000/svg" xmlns:xlink="http://www.w3.org/1999/xlink" x="0px" y="0px"
	 viewBox="0 0 254.8 178.7" style="enable-background:new 0 0 254.8 178.7;" xml:space="preserve">
<style type="text/css">
	.st0{fill:#E3000B;}
</style>
<path class="st0" d="M26.1,3.9h25.2v99.8H26.1V3.9z M138.3,62.6l-2.7,4.8c-4,6.8-11,11.6-18.7,12.6c-10.8,1.6-21.3-3.3-27.1-12.7
	c-2.6-4.2-3.8-9.1-3.7-14.4c0.4-7.8,3.8-14.5,9.9-19.8c3.6-2.4,7.3-4.4,11.5-5.1c6.6-1.4,13.4,0.2,18.8,3.3l12.4-21.8
	c-0.1-0.3-0.1-0.2-0.4-0.4c-4.9-3.1-9-4.6-14-5.7C110.9,0.2,96.4,3.1,85.5,10C75,16.1,67.2,27,63.6,37.8c-0.7,2.4-1.4,6.8-1.8,9.3
	c-1.9,15.9,1.8,28,10.9,39.5c5.8,7.7,14.2,13.2,22.9,16.1c12,4.3,28.1,3.6,39.2-2.2c10.5-4.6,19.9-14.8,25.1-24.9l9.8-17.6l2.8-5.1
	l12,21.3l-8.8,0.1l-9.8,18.2l28.8,0c0,0,4.3,7.4,6.3,11h29L172.4,0.3L138.3,62.6z M254.1,124.6H0.3v2.8h253.7V124.6z M14.7,161.8
	v4.7h8.5c-0.3,2.4-1.2,4.2-2.6,5.6c-1.4,1.4-3.3,2.1-5.8,2.1c-1.9,0-3.5-0.5-5-1.5c-1.4-1-2.5-2.3-3.3-3.9c-0.8-1.6-1.1-3.4-1.1-5.3
	c0-1.9,0.4-3.7,1.1-5.3c0.7-1.6,1.8-3,3.3-4c1.4-1,3.2-1.5,5.1-1.5c1.3,0,2.6,0.2,3.8,0.6s2.2,0.9,3,1.6l2.3-4.5
	c-1.1-0.8-2.4-1.4-4-1.9c-1.6-0.5-3.3-0.7-5.2-0.7c-2.9,0-5.4,0.7-7.6,2.1c-2.2,1.4-3.9,3.3-5.2,5.7c-1.2,2.4-1.8,5-1.8,7.9
	c0,2.9,0.6,5.5,1.8,7.9c1.2,2.4,2.9,4.3,5.1,5.7c2.2,1.4,4.8,2.1,7.6,2.1c2.8,0,5.3-0.6,7.3-1.9c2-1.3,3.6-3.1,4.7-5.4
	c1.1-2.3,1.6-4.9,1.6-7.9v-2.1H14.7z M44.2,178.7h5.2v-12.1h4.3l7.2,12.1h5.9l-7.9-12.8c1.9-0.6,3.4-1.7,4.5-3.2
	c1.1-1.5,1.6-3.3,1.6-5.3c0-1.7-0.4-3.3-1.2-4.7c-0.8-1.4-2-2.5-3.5-3.3c-1.5-0.8-3.3-1.2-5.3-1.2H44.2V178.7z M49.4,162v-9.2h5.4
	c1.6,0,2.9,0.4,3.8,1.2c0.9,0.8,1.4,2,1.4,3.4c0,1.5-0.5,2.6-1.4,3.4c-0.9,0.8-2.2,1.2-3.8,1.2H49.4z M92.7,179.1
	c2.2,0,4.2-0.5,5.9-1.4c1.7-0.9,3-2.3,4-4.1c1-1.8,1.4-3.8,1.4-6.1v-19.4h-5.1v19.2c0,2.1-0.6,3.8-1.7,5c-1.1,1.2-2.6,1.8-4.5,1.8
	c-1.9,0-3.4-0.6-4.5-1.8c-1.1-1.2-1.7-2.9-1.7-5v-19.2h-5.2v19.4c0,2.3,0.5,4.4,1.4,6.1c1,1.8,2.3,3.1,4,4.1
	C88.5,178.7,90.5,179.1,92.7,179.1z M121.7,178.7h5.2v-11.1h5.5c2,0,3.8-0.4,5.3-1.3c1.5-0.9,2.7-2.1,3.5-3.5
	c0.8-1.5,1.2-3.1,1.2-4.8c0-1.7-0.4-3.4-1.2-4.8c-0.8-1.5-2-2.7-3.5-3.6c-1.5-0.9-3.3-1.3-5.3-1.3h-10.7V178.7z M126.9,162.9v-10.1
	h5.2c1.6,0,2.8,0.5,3.8,1.4c0.9,0.9,1.4,2.2,1.4,3.7c0,1.5-0.5,2.7-1.4,3.6c-0.9,0.9-2.2,1.4-3.8,1.4H126.9z M158,178.7h5.2v-11.1
	h5.5c2,0,3.8-0.4,5.3-1.3c1.5-0.9,2.7-2.1,3.5-3.5c0.8-1.5,1.2-3.1,1.2-4.8c0-1.7-0.4-3.4-1.2-4.8c-0.8-1.5-2-2.7-3.5-3.6
	c-1.5-0.9-3.3-1.3-5.3-1.3H158V178.7z M163.2,162.9v-10.1h5.2c1.6,0,2.8,0.5,3.8,1.4c0.9,0.9,1.4,2.2,1.4,3.7c0,1.5-0.5,2.7-1.4,3.6
	c-0.9,0.9-2.2,1.4-3.8,1.4H163.2z M194.3,178.7h18.3V174h-13.1v-8.6h11v-4.7h-11v-8H212v-4.7h-17.7V178.7z M248.9,148.1v21.6
	l-14.5-21.6h-5.1v30.6h5.2v-21.6l14.6,21.6h5v-30.6H248.9z"/>
</svg>
